<svg xmlns="http://www.w3.org/2000/svg" xmlns:xlink="http://www.w3.org/1999/xlink" width="500" zoomAndPan="magnify" viewBox="0 0 375 374.999991" height="500" preserveAspectRatio="xMidYMid meet" version="1.0"><defs><g/><clipPath id="65658bbaea"><path d="M 9.125 125.457031 L 121.789062 125.457031 L 121.789062 223.894531 L 9.125 223.894531 Z M 9.125 125.457031 " clip-rule="nonzero"/></clipPath><clipPath id="9a492ee95e"><path d="M 65.375 125.457031 L 121.625 223.894531 L 9.125 223.894531 Z M 65.375 125.457031 " clip-rule="nonzero"/></clipPath></defs><g fill="#000000" fill-opacity="1"><g transform="translate(132.840332, 221.857778)"><g><path d="M 25.328125 -2.921875 C 23.867188 -1.035156 22.046875 0.0859375 19.859375 0.453125 C 17.734375 0.816406 15.578125 0.578125 13.390625 -0.265625 C 11.265625 -1.054688 9.351562 -2.425781 7.65625 -4.375 C 5.894531 -6.3125 4.800781 -8.53125 4.375 -11.03125 C 4.070312 -12.789062 3.796875 -14.457031 3.546875 -16.03125 C 3.242188 -17.550781 2.941406 -18.945312 2.640625 -20.21875 C 2.097656 -22.65625 1.644531 -24.992188 1.28125 -27.234375 C 0.914062 -29.304688 0.640625 -31.3125 0.453125 -33.25 C 0.328125 -34.226562 0.265625 -35.234375 0.265625 -36.265625 C 0.210938 -37.234375 0.15625 -38.234375 0.09375 -39.265625 C 0.03125 -41.328125 0.03125 -43.632812 0.09375 -46.1875 C 0.15625 -48.738281 0.335938 -51.75 0.640625 -55.21875 C 0.703125 -56.726562 0.789062 -58 0.90625 -59.03125 C 0.96875 -60.007812 1.148438 -60.832031 1.453125 -61.5 C 1.703125 -62.101562 2.066406 -62.554688 2.546875 -62.859375 C 2.972656 -63.109375 3.671875 -63.234375 4.640625 -63.234375 C 5.617188 -63.234375 6.410156 -63.082031 7.015625 -62.78125 C 7.554688 -62.46875 7.890625 -61.859375 8.015625 -60.953125 C 8.378906 -58.097656 8.5625 -55.820312 8.5625 -54.125 C 8.5625 -53.269531 8.5625 -52.445312 8.5625 -51.65625 C 8.5 -50.8125 8.4375 -49.992188 8.375 -49.203125 C 8.320312 -48.410156 8.296875 -47.617188 8.296875 -46.828125 C 8.234375 -45.972656 8.203125 -45.09375 8.203125 -44.1875 C 8.203125 -42.363281 8.382812 -40.054688 8.75 -37.265625 C 9.113281 -34.523438 9.660156 -31.03125 10.390625 -26.78125 C 10.753906 -24.65625 11.238281 -22.285156 11.84375 -19.671875 C 12.394531 -17.066406 13.0625 -14.125 13.84375 -10.84375 C 14.457031 -8.351562 15.914062 -6.53125 18.21875 -5.375 C 19.800781 -6.59375 20.957031 -8.71875 21.6875 -11.75 C 22.414062 -14.851562 22.867188 -18.40625 23.046875 -22.40625 C 23.234375 -26.414062 23.234375 -30.609375 23.046875 -34.984375 C 22.867188 -39.359375 22.6875 -43.457031 22.5 -47.28125 C 22.382812 -49.226562 22.296875 -51.019531 22.234375 -52.65625 C 22.171875 -54.238281 22.109375 -55.726562 22.046875 -57.125 C 21.984375 -59.851562 22.132812 -61.554688 22.5 -62.234375 C 23.113281 -62.648438 23.753906 -62.921875 24.421875 -63.046875 C 25.023438 -63.109375 25.660156 -63.109375 26.328125 -63.046875 C 27.359375 -62.984375 28.117188 -62.738281 28.609375 -62.3125 C 29.035156 -62.007812 29.335938 -61.222656 29.515625 -59.953125 C 29.578125 -58.921875 29.671875 -57.460938 29.796875 -55.578125 C 29.859375 -53.628906 29.945312 -51.535156 30.0625 -49.296875 C 30.125 -48.140625 30.1875 -46.953125 30.25 -45.734375 C 30.25 -44.523438 30.25 -43.28125 30.25 -42 L 30.25 -24.78125 C 30.25 -23.195312 30.15625 -21.46875 29.96875 -19.59375 C 29.789062 -17.769531 29.519531 -15.820312 29.15625 -13.75 C 28.96875 -12.71875 28.753906 -11.75 28.515625 -10.84375 C 28.273438 -9.875 28.003906 -8.929688 27.703125 -8.015625 C 27.085938 -6.253906 26.265625 -4.765625 25.234375 -3.546875 Z M 25.328125 -2.921875 "/></g></g></g><g fill="#000000" fill-opacity="1"><g transform="translate(179.575282, 221.857778)"><g><path d="M 28.421875 0.1875 C 27.023438 0.488281 25.75 0.488281 24.59375 0.1875 C 23.445312 -0.0625 22.691406 -0.609375 22.328125 -1.453125 C 22.140625 -1.878906 21.957031 -2.703125 21.78125 -3.921875 C 21.59375 -5.191406 21.410156 -6.585938 21.234375 -8.109375 C 21.109375 -8.960938 21.015625 -9.8125 20.953125 -10.65625 C 20.828125 -11.507812 20.707031 -12.390625 20.59375 -13.296875 C 20.46875 -14.210938 20.34375 -15.125 20.21875 -16.03125 C 20.039062 -16.945312 19.859375 -17.828125 19.671875 -18.671875 L 16.125 -18.125 C 15.519531 -18.007812 14.941406 -17.921875 14.390625 -17.859375 C 13.785156 -17.796875 13.179688 -17.734375 12.578125 -17.671875 C 11.910156 -16.460938 11.546875 -15.28125 11.484375 -14.125 C 11.421875 -12.96875 11.238281 -11.84375 10.9375 -10.75 C 10.6875 -9.894531 10.472656 -9.132812 10.296875 -8.46875 C 10.109375 -7.738281 9.957031 -7.101562 9.84375 -6.5625 C 9.539062 -5.40625 9.265625 -4.523438 9.015625 -3.921875 C 8.710938 -3.253906 8.347656 -2.796875 7.921875 -2.546875 C 7.441406 -2.242188 6.804688 -2.09375 6.015625 -2.09375 C 4.429688 -1.96875 3.335938 -2.148438 2.734375 -2.640625 C 2.066406 -3.128906 1.703125 -3.890625 1.640625 -4.921875 C 1.515625 -6.015625 1.601562 -7.472656 1.90625 -9.296875 C 2.15625 -11.054688 2.429688 -13.300781 2.734375 -16.03125 C 2.796875 -16.09375 2.828125 -16.367188 2.828125 -16.859375 L 1.453125 -16.859375 C 0.972656 -16.859375 0.578125 -17.007812 0.265625 -17.3125 C 0.0234375 -17.550781 -0.0625 -17.851562 0 -18.21875 C 0.125 -18.707031 0.210938 -19.039062 0.265625 -19.21875 C 0.328125 -19.40625 0.359375 -19.738281 0.359375 -20.21875 C 0.359375 -20.644531 0.484375 -20.984375 0.734375 -21.234375 C 0.785156 -21.285156 0.9375 -21.375 1.1875 -21.5 L 1.734375 -21.78125 C 2.097656 -21.894531 2.367188 -21.953125 2.546875 -21.953125 C 2.734375 -21.953125 3.007812 -22.015625 3.375 -22.140625 C 3.800781 -23.597656 4.253906 -25.9375 4.734375 -29.15625 C 4.984375 -30.738281 5.226562 -32.4375 5.46875 -34.25 C 5.707031 -36.019531 5.976562 -37.875 6.28125 -39.8125 C 6.832031 -43.882812 7.472656 -47.863281 8.203125 -51.75 C 8.566406 -53.75 8.960938 -55.660156 9.390625 -57.484375 C 9.804688 -59.304688 10.257812 -61.007812 10.75 -62.59375 C 11.113281 -63.8125 11.960938 -64.421875 13.296875 -64.421875 L 17.3125 -64.421875 C 17.800781 -64.421875 18.253906 -64.421875 18.671875 -64.421875 C 19.035156 -64.359375 19.367188 -64.296875 19.671875 -64.234375 C 20.222656 -64.171875 20.648438 -64.019531 20.953125 -63.78125 C 21.253906 -63.59375 21.53125 -63.285156 21.78125 -62.859375 C 22.019531 -62.378906 22.257812 -61.742188 22.5 -60.953125 C 22.75 -60.160156 23.023438 -59.21875 23.328125 -58.125 C 23.628906 -57.03125 23.898438 -55.847656 24.140625 -54.578125 C 24.390625 -53.296875 24.632812 -51.957031 24.875 -50.5625 C 25.300781 -47.707031 25.753906 -44.609375 26.234375 -41.265625 C 26.484375 -39.566406 26.726562 -37.898438 26.96875 -36.265625 C 27.144531 -34.554688 27.328125 -32.851562 27.515625 -31.15625 C 27.878906 -27.757812 28.242188 -24.476562 28.609375 -21.3125 C 28.785156 -19.738281 28.96875 -18.253906 29.15625 -16.859375 C 29.28125 -15.398438 29.398438 -14.0625 29.515625 -12.84375 C 29.640625 -11.632812 29.765625 -10.539062 29.890625 -9.5625 C 29.941406 -8.53125 30.03125 -7.585938 30.15625 -6.734375 C 30.34375 -5.097656 30.4375 -4.160156 30.4375 -3.921875 C 30.488281 -2.828125 30.332031 -1.972656 29.96875 -1.359375 C 29.601562 -0.816406 28.9375 -0.425781 27.96875 -0.1875 Z M 13.296875 -23.5 C 13.722656 -23.5625 14.148438 -23.625 14.578125 -23.6875 C 15.003906 -23.6875 15.457031 -23.71875 15.9375 -23.78125 C 16.851562 -23.84375 17.859375 -23.929688 18.953125 -24.046875 L 18.765625 -25.328125 C 18.703125 -25.753906 18.644531 -26.238281 18.59375 -26.78125 C 18.53125 -27.269531 18.4375 -27.847656 18.3125 -28.515625 L 17.671875 -32.609375 L 17.03125 -36.71875 C 16.851562 -37.988281 16.671875 -39.082031 16.484375 -40 C 16.304688 -40.96875 16.1875 -41.484375 16.125 -41.546875 C 15.945312 -41.242188 15.675781 -40.332031 15.3125 -38.8125 C 15.125 -38.019531 14.941406 -37.203125 14.765625 -36.359375 C 14.578125 -35.441406 14.421875 -34.46875 14.296875 -33.4375 C 14.179688 -32.40625 14.0625 -31.429688 13.9375 -30.515625 C 13.8125 -29.546875 13.691406 -28.578125 13.578125 -27.609375 C 13.390625 -25.785156 13.445312 -24.390625 13.75 -23.421875 Z M 13.296875 -23.5 "/></g></g></g><g fill="#000000" fill-opacity="1"><g transform="translate(226.58354, 221.857778)"><g><path d="M 7.109375 0.09375 C 5.160156 0.207031 3.914062 -0.00390625 3.375 -0.546875 C 2.882812 -1.035156 2.578125 -1.765625 2.453125 -2.734375 C 2.085938 -6.378906 1.816406 -9.414062 1.640625 -11.84375 C 1.453125 -14.519531 1.269531 -16.769531 1.09375 -18.59375 C 0.96875 -19.5625 0.90625 -20.46875 0.90625 -21.3125 C 0.84375 -22.164062 0.785156 -22.957031 0.734375 -23.6875 C 0.671875 -24.414062 0.640625 -25.144531 0.640625 -25.875 L 0.640625 -35.4375 C 0.640625 -36.351562 0.609375 -37.390625 0.546875 -38.546875 C 0.421875 -42.429688 0.328125 -45.707031 0.265625 -48.375 C 0.210938 -49.71875 0.1875 -50.929688 0.1875 -52.015625 C 0.125 -53.109375 0.09375 -54.082031 0.09375 -54.9375 L 0.09375 -62.5 C 0.09375 -62.925781 0.125 -63.257812 0.1875 -63.5 C 0.238281 -64.289062 0.660156 -64.929688 1.453125 -65.421875 C 2.242188 -65.898438 3.066406 -66.140625 3.921875 -66.140625 C 4.828125 -66.140625 5.707031 -65.867188 6.5625 -65.328125 C 7.40625 -64.773438 7.921875 -63.863281 8.109375 -62.59375 C 8.347656 -60.707031 8.53125 -59.1875 8.65625 -58.03125 C 8.71875 -57.488281 8.78125 -56.941406 8.84375 -56.390625 C 8.84375 -55.785156 8.84375 -55.179688 8.84375 -54.578125 L 8.84375 -50.203125 C 8.84375 -49.347656 8.867188 -48.316406 8.921875 -47.109375 C 8.921875 -45.828125 8.953125 -44.398438 9.015625 -42.828125 C 9.078125 -41.242188 9.140625 -39.421875 9.203125 -37.359375 C 9.265625 -35.234375 9.351562 -32.894531 9.46875 -30.34375 C 9.59375 -27.789062 9.75 -24.90625 9.9375 -21.6875 C 10.050781 -18.40625 10.234375 -14.757812 10.484375 -10.75 C 10.535156 -8.625 10.625 -6.863281 10.75 -5.46875 C 10.8125 -4.1875 10.75 -3.09375 10.5625 -2.1875 C 10.382812 -1.332031 10.019531 -0.785156 9.46875 -0.546875 C 8.925781 -0.242188 8.171875 -0.0625 7.203125 0 Z M 7.109375 0.09375 "/></g></g></g><g fill="#000000" fill-opacity="1"><g transform="translate(253.913848, 221.857778)"><g><path d="M 5.828125 0.09375 C 4.734375 0.09375 3.640625 -0.117188 2.546875 -0.546875 C 1.148438 -1.085938 0.363281 -1.90625 0.1875 -3 C 0 -4.09375 0 -5.367188 0.1875 -6.828125 C 0.300781 -8.222656 0.9375 -9.101562 2.09375 -9.46875 C 3.375 -9.832031 4.679688 -9.988281 6.015625 -9.9375 C 7.953125 -9.8125 9.195312 -9.351562 9.75 -8.5625 C 10.289062 -7.707031 10.472656 -6.25 10.296875 -4.1875 C 10.109375 -2.613281 9.710938 -1.519531 9.109375 -0.90625 C 8.503906 -0.300781 7.410156 0 5.828125 0 Z M 5.828125 0.09375 "/></g></g></g><g fill="#000000" fill-opacity="1"><g transform="translate(280.879743, 221.857778)"><g><path d="M 3.640625 -6.28125 C 2.671875 -6.46875 1.941406 -6.800781 1.453125 -7.28125 C 1.023438 -7.707031 0.753906 -8.5 0.640625 -9.65625 C -0.273438 -18.769531 -0.550781 -27.941406 -0.1875 -37.171875 C -0.125 -38.691406 -0.0625 -40.085938 0 -41.359375 C 0 -42.578125 0 -43.703125 0 -44.734375 L 0 -49.84375 C 0 -50.507812 0.03125 -51.113281 0.09375 -51.65625 C 0.09375 -52.207031 0.125 -52.664062 0.1875 -53.03125 C 0.238281 -53.757812 0.507812 -54.304688 1 -54.671875 C 1.488281 -55.035156 2.15625 -55.304688 3 -55.484375 C 3.488281 -55.609375 4.035156 -55.726562 4.640625 -55.84375 C 5.191406 -55.96875 5.863281 -56.09375 6.65625 -56.21875 C 10.238281 -56.882812 13.304688 -56.703125 15.859375 -55.671875 C 18.460938 -54.640625 20.460938 -53.148438 21.859375 -51.203125 C 23.316406 -49.203125 24.226562 -46.863281 24.59375 -44.1875 C 24.957031 -41.507812 24.6875 -38.804688 23.78125 -36.078125 C 22.863281 -33.410156 21.316406 -30.828125 19.140625 -28.328125 C 16.953125 -25.835938 14.1875 -23.835938 10.84375 -22.328125 C 10.65625 -22.265625 10.441406 -22.171875 10.203125 -22.046875 C 9.960938 -21.921875 9.75 -21.832031 9.5625 -21.78125 C 9.5625 -20.070312 9.59375 -18.582031 9.65625 -17.3125 C 9.65625 -15.976562 9.6875 -14.789062 9.75 -13.75 C 9.8125 -11.75 9.8125 -10.265625 9.75 -9.296875 C 9.625 -8.203125 9.410156 -7.503906 9.109375 -7.203125 C 8.679688 -6.773438 8.070312 -6.53125 7.28125 -6.46875 C 6.25 -6.289062 5.160156 -6.289062 4.015625 -6.46875 Z M 9.203125 -27.515625 C 12.421875 -30.304688 14.394531 -33.492188 15.125 -37.078125 C 15.851562 -40.660156 15.609375 -44.488281 14.390625 -48.5625 C 13.910156 -50.019531 13.335938 -51.082031 12.671875 -51.75 C 11.878906 -52.539062 11.148438 -53.054688 10.484375 -53.296875 C 9.753906 -53.535156 9.113281 -53.535156 8.5625 -53.296875 C 8.070312 -53.054688 7.859375 -52.570312 7.921875 -51.84375 C 8.171875 -48.132812 8.351562 -44.972656 8.46875 -42.359375 C 8.53125 -41.085938 8.59375 -39.9375 8.65625 -38.90625 C 8.65625 -37.875 8.65625 -36.929688 8.65625 -36.078125 L 8.65625 -29.890625 C 8.65625 -29.460938 8.71875 -29.066406 8.84375 -28.703125 C 8.894531 -28.398438 9.078125 -28.125 9.390625 -27.875 Z M 9.203125 -27.515625 "/></g></g></g><g fill="#000000" fill-opacity="1"><g transform="translate(322.421908, 221.857778)"><g><path d="M 16.03125 -5.828125 C 14.632812 -5.648438 13.359375 -5.742188 12.203125 -6.109375 C 11.054688 -6.472656 10.328125 -7.351562 10.015625 -8.75 C 9.597656 -10.445312 9.265625 -11.992188 9.015625 -13.390625 C 8.773438 -14.785156 8.59375 -16.09375 8.46875 -17.3125 C 8.351562 -18.53125 8.296875 -19.625 8.296875 -20.59375 C 8.234375 -21.5625 8.171875 -22.472656 8.109375 -23.328125 C 7.984375 -25.023438 7.800781 -26.359375 7.5625 -27.328125 C 7.257812 -28.359375 6.625 -29.238281 5.65625 -29.96875 C 5.34375 -30.644531 5.066406 -31.316406 4.828125 -31.984375 C 4.523438 -32.648438 4.222656 -33.378906 3.921875 -34.171875 C 3.617188 -34.953125 3.34375 -35.738281 3.09375 -36.53125 C 2.789062 -37.320312 2.488281 -38.144531 2.1875 -39 C 1.632812 -40.632812 1.175781 -42.363281 0.8125 -44.1875 C 0.632812 -45.09375 0.515625 -46.003906 0.453125 -46.921875 C 0.328125 -47.828125 0.238281 -48.738281 0.1875 -49.65625 C 0.125 -49.957031 0.09375 -50.289062 0.09375 -50.65625 C 0.03125 -50.957031 -0.0625 -51.257812 -0.1875 -51.5625 C -0.363281 -52.175781 -0.453125 -52.816406 -0.453125 -53.484375 C -0.453125 -54.148438 -0.332031 -54.695312 -0.09375 -55.125 C 0.207031 -55.601562 0.753906 -55.9375 1.546875 -56.125 C 3.671875 -56.613281 5.191406 -56.398438 6.109375 -55.484375 C 7.015625 -54.578125 7.742188 -53.117188 8.296875 -51.109375 C 8.597656 -50.078125 8.898438 -48.953125 9.203125 -47.734375 C 9.503906 -46.523438 9.804688 -45.191406 10.109375 -43.734375 C 10.722656 -40.941406 11.785156 -37.753906 13.296875 -34.171875 C 13.597656 -35.140625 13.90625 -36.078125 14.21875 -36.984375 C 14.457031 -37.898438 14.664062 -38.8125 14.84375 -39.71875 L 15.390625 -42.453125 C 15.578125 -43.367188 15.734375 -44.28125 15.859375 -45.1875 C 15.972656 -46.101562 16.09375 -47.015625 16.21875 -47.921875 C 16.28125 -48.773438 16.367188 -49.625 16.484375 -50.46875 C 16.609375 -51.320312 16.734375 -52.203125 16.859375 -53.109375 C 16.921875 -53.960938 17.007812 -54.816406 17.125 -55.671875 C 18.15625 -56.335938 19.160156 -56.671875 20.140625 -56.671875 C 21.109375 -56.671875 22.140625 -56.488281 23.234375 -56.125 C 23.773438 -53.570312 23.773438 -51.113281 23.234375 -48.75 C 22.679688 -46.4375 22.222656 -44.003906 21.859375 -41.453125 C 21.492188 -39.085938 21.039062 -36.6875 20.5 -34.25 C 19.945312 -31.945312 18.945312 -29.734375 17.5 -27.609375 C 17.738281 -25.296875 17.945312 -23.257812 18.125 -21.5 C 18.3125 -19.675781 18.492188 -18.066406 18.671875 -16.671875 C 19.035156 -13.941406 19.21875 -11.847656 19.21875 -10.390625 C 19.21875 -8.929688 19.035156 -7.925781 18.671875 -7.375 C 18.304688 -6.832031 17.640625 -6.53125 16.671875 -6.46875 Z M 16.03125 -5.828125 "/></g></g></g><g clip-path="url(#65658bbaea)"><g clip-path="url(#9a492ee95e)"><path fill="#ff0000" d="M 9.125 125.457031 L 121.789062 125.457031 L 121.789062 223.894531 L 9.125 223.894531 Z M 9.125 125.457031 " fill-opacity="1" fill-rule="nonzero"/></g></g></svg>